<?xml version="1.0" encoding="UTF-8"?>
<svg id="Layer_1" xmlns="http://www.w3.org/2000/svg" version="1.1" viewBox="0 0 64 64">
  <!-- Generator: Adobe Illustrator 29.3.1, SVG Export Plug-In . SVG Version: 2.1.0 Build 151)  -->
  <defs>
    <style>
      .st0 {
        fill: #c81f45;
      }

      .st1 {
        fill: #fff;
      }
    </style>
  </defs>
  <circle class="st0" cx="32" cy="32" r="32"/>
  <g>
    <path class="st1" d="M22.7,33.4c-.9-7.8,1.8-14.8,6.6-19.8l-4.4-6.7c-6.2,6.3-8.6,15.1-7.3,24.2,1.1.7,5.1,2.3,5.1,2.3"/>
    <path class="st1" d="M22.7,33.4c-.9-7.8,1.8-14.8,6.6-19.8l-4.4-6.7c-6.2,6.3-8.6,15.1-7.3,24.2,1.1.7,5.1,2.3,5.1,2.3"/>
    <path class="st1" d="M28.7,35.3c-.7-11.9,10.7-19.7,18.3-19.7l-4.7-5.7c-9.5,1.5-18.8,11.5-17.3,24.3.9.5,3.8,1.1,3.8,1.1"/>
    <path class="st1" d="M28.7,35.3c-.7-11.9,10.7-19.7,18.3-19.7l-4.7-5.7c-9.5,1.5-18.8,11.5-17.3,24.3.9.5,3.8,1.1,3.8,1.1"/>
    <path class="st1" d="M34.5,36.5c.4-9.3,9.8-15.6,21.9-9.8l.2-7.7c-13.4-4.4-26.2,4.4-25.5,16.9,1,.4,3.4.6,3.4.6"/>
    <g>
      <path class="st1" d="M34.5,36.5c.4-9.3,9.8-15.6,21.9-9.8l.2-7.7c-13.4-4.4-26.2,4.4-25.5,16.9,1,.4,3.4.6,3.4.6"/>
      <path class="st1" d="M37.8,31.5c.8-1.8,2.2-2.6,2.2-2.6,10.5,4,10.4,14-4.9,12.6.6,2.7,2.1,5.1,4.1,7.6l-1.2,1.6c-2.9-3.3-5.3-6.5-6.4-9.7-.8-.1-1.4-.2-2.3-.4,1.2,3.5,3.9,7.4,7.6,11.4,0,0-1.4,1.9-1.4,1.8-4.7-4.8-8-9.5-9.6-14.1-.8-.2-1.4-.3-2.2-.6,1.7,5.3,5.2,10.6,10.6,16.1l-1.2,1.6c-7-5.5-11.6-12.4-14-19.5-15.8-6.3-14.1-14.9-3.3-14.7-.2.9,0,3.2,0,3.3-2-.2-3-.2-5.1.7-.3.2-1-.4-1.3-1.4-.8,1.7.7,3.1,1.3,3.7,1.4,1.5,2.8,2.8,16,7.2,9.2,2.3,13.7,2.4,17,1.5,1.5-.6,2.8-2,2.4-2.9,0,0-1.2,1.4-2.3.7-.5-1.2-2.6-2.6-6-4.1"/>
      <path class="st1" d="M37.8,31.5c.8-1.8,2.2-2.6,2.2-2.6,10.5,4,10.4,14-4.9,12.6.6,2.7,2.1,5.1,4.1,7.6l-1.2,1.6c-2.9-3.3-5.3-6.5-6.4-9.7-.8-.1-1.4-.2-2.3-.4,1.2,3.5,3.9,7.4,7.6,11.4,0,0-1.4,1.9-1.4,1.8-4.7-4.8-8-9.5-9.6-14.1-.8-.2-1.4-.3-2.2-.6,1.7,5.3,5.2,10.6,10.6,16.1l-1.2,1.6c-7-5.5-11.6-12.4-14-19.5-15.8-6.3-14.1-14.9-3.3-14.7-.2.9,0,3.2,0,3.3-2-.2-3-.2-5.1.7-.3.2-1-.4-1.3-1.4-.8,1.7.7,3.1,1.3,3.7,1.4,1.5,2.8,2.8,16,7.2,9.2,2.3,13.7,2.4,17,1.5,1.5-.6,2.8-2,2.4-2.9,0,0-1.2,1.4-2.3.7-.5-1.2-2.6-2.6-6-4.1"/>
    </g>
  </g>
</svg>